<?xml version="1.0" encoding="utf-8"?>
<!-- Generator: Adobe Illustrator 19.0.1, SVG Export Plug-In . SVG Version: 6.00 Build 0)  -->
<svg version="1.1" id="Calque_1" xmlns="http://www.w3.org/2000/svg" xmlns:xlink="http://www.w3.org/1999/xlink" x="0px" y="0px"
	 viewBox="0 0 841.9 595.3" style="enable-background:new 0 0 841.9 595.3;" xml:space="preserve">
<style type="text/css">
	.st0{clip-path:url(#SVGID_2_);}
</style>
<g>
	<g>
		<defs>
			<rect id="SVGID_1_" x="296" y="174.3" width="248.9" height="249"/>
		</defs>
		<clipPath id="SVGID_2_">
			<use xlink:href="#SVGID_1_"  style="overflow:visible;"/>
		</clipPath>
		<path class="st0" d="M514.9,346.3c39.3-39.3,39.3-103.2,0-142.5c-39.3-39.3-103.2-39.3-142.5,0c-33.3,33.3-38.4,82.9-15.2,121.6
			c0,0,1.7,2.8-0.6,5.1c-12.8,12.9-51.4,51.4-51.4,51.4c-10.2,10.2-12.7,24.5-3.6,33.6l1.6,1.6c9.1,9.1,23.4,6.6,33.6-3.6l51.3-51.3
			c2.4-2.4,5.2-0.7,5.2-0.7C432,384.6,481.5,379.6,514.9,346.3L514.9,346.3z M391,327.6c-29-29-29-76.3,0-105.3
			c29-29,76.3-29,105.3,0c29,29,29,76.3,0,105.3C467.2,356.7,420,356.7,391,327.6L391,327.6z M391,327.6"/>
	</g>
	<path d="M438.9,295.2c-4.4,0-8-3.6-8-8l-6.4-57.2c0-4.4,3.6-8,8-8h22.9c4.4,0,8,3.6,8,8l-6.4,57.2c0,4.4-3.6,8-8,8H438.9z
		 M438.9,295.2"/>
	<path d="M455.2,321.5c0,3.5-2.9,6.4-6.4,6.4h-9.7c-3.5,0-6.4-2.9-6.4-6.4v-9.7c0-3.5,2.9-6.4,6.4-6.4h9.7c3.5,0,6.4,2.9,6.4,6.4
		V321.5z M455.2,321.5"/>
</g>
</svg>
