<?xml version="1.0" encoding="utf-8"?>
<!-- Generator: Adobe Illustrator 19.0.1, SVG Export Plug-In . SVG Version: 6.00 Build 0)  -->
<svg version="1.1" id="Calque_1" xmlns="http://www.w3.org/2000/svg" xmlns:xlink="http://www.w3.org/1999/xlink" x="0px" y="0px"
	 viewBox="0 0 841.9 595.3" style="enable-background:new 0 0 841.9 595.3;" xml:space="preserve">
<g>
	<path d="M420,107.3c-84.3,0-153,68.6-153,153c0,9.6,0.9,19.3,2.7,28.7c0.1,0.6,0.4,2.2,1,5.1c2.3,10.3,5.8,20.5,10.2,30.2
		c16.5,38.8,52.7,98.4,132.2,162.2c2,1.6,4.4,2.4,6.8,2.4c2.4,0,4.8-0.8,6.8-2.4c79.4-63.8,115.8-123.4,132.2-162.2
		c4.5-9.7,7.9-19.8,10.2-30.2c0.6-2.9,1-4.6,1-5.1c1.8-9.4,2.7-19.1,2.7-28.7C572.9,175.9,504.3,107.3,420,107.3L420,107.3z
		 M548.9,285.2c0,0.2-0.1,0.3-0.1,0.5c-0.1,0.4-0.3,1.6-0.7,3.4v0.2c-2,9-5,17.7-8.9,26.1c-0.1,0.1-0.1,0.2-0.2,0.3
		c-15,35.4-47.8,89.5-119.1,148.5c-71.4-59-104.2-113-119.1-148.5c-0.1-0.1-0.1-0.2-0.2-0.3c-3.8-8.3-6.8-17.1-8.9-26.1v-0.2
		c-0.5-1.8-0.6-3-0.7-3.4c0-0.2-0.1-0.3-0.1-0.6c-1.6-8.2-2.4-16.6-2.4-25c0-72.4,59-131.4,131.4-131.4c72.4,0,131.4,59,131.4,131.4
		C551.3,268.6,550.5,277,548.9,285.2L548.9,285.2z M548.9,285.2"/>
	<path d="M420,164.8c-53.5,0-97.1,43.6-97.1,97.1c0,53.5,43.6,97.1,97.1,97.1c53.5,0,97.1-43.6,97.1-97.1
		C517.1,208.4,473.5,164.8,420,164.8L420,164.8z M420,337.4c-41.7,0-75.5-33.9-75.5-75.5c0-41.6,33.9-75.5,75.5-75.5
		c41.6,0,75.5,33.9,75.5,75.5C495.5,303.5,461.6,337.4,420,337.4L420,337.4z M420,337.4"/>
</g>
</svg>
